<svg width="33" height="32" viewBox="0 0 33 32" fill="none" xmlns="http://www.w3.org/2000/svg">
<path d="M25.4733 7.21314L23.7666 8.54647L16.4999 13.9465L9.23327 8.49314L7.5266 7.1598C7.12454 6.8272 6.63374 6.61986 6.11499 6.56347C5.59624 6.50708 5.07235 6.60413 4.60821 6.84258C4.14408 7.08103 3.7601 7.45042 3.50386 7.90497C3.24761 8.35952 3.13035 8.87926 3.1666 9.3998V24.8531C3.1666 25.3341 3.35765 25.7953 3.69772 26.1354C4.03778 26.4754 4.49901 26.6665 4.97994 26.6665H9.23327V16.3731L16.4999 21.8265L23.7666 16.3731V26.6665H28.0199C28.5009 26.6665 28.9621 26.4754 29.3022 26.1354C29.6422 25.7953 29.8333 25.3341 29.8333 24.8531V9.3998C29.8583 8.88375 29.7329 8.37154 29.4723 7.92543C29.2117 7.47932 28.827 7.11853 28.3652 6.88691C27.9034 6.65529 27.3842 6.56281 26.8708 6.62073C26.3574 6.67864 25.8719 6.88445 25.4733 7.21314Z" fill="#7300FF"/>
</svg>
