<svg width="232" height="28" viewBox="0 0 232 28" fill="none" xmlns="http://www.w3.org/2000/svg">
<path d="M12.6 18.1L4.47035e-08 13.84V9.16L12.6 4.9V8.5L3.66 11.23V11.77L12.6 14.5V18.1ZM17.5835 22V0.999999H21.5435V18.4H31.1435V22H17.5835ZM33.9633 22V7.12H37.7433V22H33.9633ZM33.5733 5.44L35.7933 0.999999H40.0533L36.8733 5.44H33.5733ZM45.052 22L40.312 7.12H44.332L47.782 19.24H48.322L51.772 7.12H55.792L51.052 22H45.052ZM58.3676 22V7.12H62.1476V22H58.3676ZM60.2576 5.38C59.5776 5.38 58.9976 5.16 58.5176 4.72C58.0576 4.28 57.8276 3.7 57.8276 2.98C57.8276 2.26 58.0576 1.68 58.5176 1.24C58.9976 0.799999 59.5776 0.579999 60.2576 0.579999C60.9576 0.579999 61.5376 0.799999 61.9976 1.24C62.4576 1.68 62.6876 2.26 62.6876 2.98C62.6876 3.7 62.4576 4.28 61.9976 4.72C61.5376 5.16 60.9576 5.38 60.2576 5.38ZM70.9563 22.42C69.8963 22.42 68.9463 22.24 68.1063 21.88C67.2663 21.5 66.5963 20.96 66.0963 20.26C65.6163 19.54 65.3763 18.67 65.3763 17.65C65.3763 16.63 65.6163 15.78 66.0963 15.1C66.5963 14.4 67.2763 13.88 68.1363 13.54C69.0163 13.18 70.0163 13 71.1363 13H75.2163V12.16C75.2163 11.46 74.9963 10.89 74.5563 10.45C74.1163 9.99 73.4163 9.76 72.4563 9.76C71.5163 9.76 70.8163 9.98 70.3563 10.42C69.8963 10.84 69.5963 11.39 69.4563 12.07L65.9763 10.9C66.2163 10.14 66.5963 9.45 67.1163 8.83C67.6563 8.19 68.3663 7.68 69.2463 7.3C70.1463 6.9 71.2363 6.7 72.5163 6.7C74.4763 6.7 76.0263 7.19 77.1663 8.17C78.3063 9.15 78.8763 10.57 78.8763 12.43V17.98C78.8763 18.58 79.1563 18.88 79.7163 18.88H80.9163V22H78.3963C77.6563 22 77.0463 21.82 76.5663 21.46C76.0863 21.1 75.8463 20.62 75.8463 20.02V19.99H75.2763C75.1963 20.23 75.0163 20.55 74.7363 20.95C74.4563 21.33 74.0163 21.67 73.4163 21.97C72.8163 22.27 71.9963 22.42 70.9563 22.42ZM71.6163 19.36C72.6763 19.36 73.5363 19.07 74.1963 18.49C74.8763 17.89 75.2163 17.1 75.2163 16.12V15.82H71.4063C70.7063 15.82 70.1563 15.97 69.7563 16.27C69.3563 16.57 69.1563 16.99 69.1563 17.53C69.1563 18.07 69.3663 18.51 69.7863 18.85C70.2063 19.19 70.8163 19.36 71.6163 19.36ZM91.5401 22.42C88.9401 22.42 86.8801 21.7 85.3601 20.26C83.8401 18.8 83.0801 16.72 83.0801 14.02V8.98C83.0801 6.28 83.8401 4.21 85.3601 2.77C86.8801 1.31 88.9401 0.579999 91.5401 0.579999C94.1201 0.579999 96.1101 1.29 97.5101 2.71C98.9301 4.11 99.6401 6.04 99.6401 8.5V8.68H95.7401V8.38C95.7401 7.14 95.3901 6.12 94.6901 5.32C94.0101 4.52 92.9601 4.12 91.5401 4.12C90.1401 4.12 89.0401 4.55 88.2401 5.41C87.4401 6.27 87.0401 7.44 87.0401 8.92V14.08C87.0401 15.54 87.4401 16.71 88.2401 17.59C89.0401 18.45 90.1401 18.88 91.5401 18.88C92.9601 18.88 94.0101 18.48 94.6901 17.68C95.3901 16.86 95.7401 15.84 95.7401 14.62V14.08H99.6401V14.5C99.6401 16.96 98.9301 18.9 97.5101 20.32C96.1101 21.72 94.1201 22.42 91.5401 22.42ZM107.607 22.42C106.547 22.42 105.597 22.24 104.757 21.88C103.917 21.5 103.247 20.96 102.747 20.26C102.267 19.54 102.027 18.67 102.027 17.65C102.027 16.63 102.267 15.78 102.747 15.1C103.247 14.4 103.927 13.88 104.787 13.54C105.667 13.18 106.667 13 107.787 13H111.867V12.16C111.867 11.46 111.647 10.89 111.207 10.45C110.767 9.99 110.067 9.76 109.107 9.76C108.167 9.76 107.467 9.98 107.007 10.42C106.547 10.84 106.247 11.39 106.107 12.07L102.627 10.9C102.867 10.14 103.247 9.45 103.767 8.83C104.307 8.19 105.017 7.68 105.897 7.3C106.797 6.9 107.887 6.7 109.167 6.7C111.127 6.7 112.677 7.19 113.817 8.17C114.957 9.15 115.527 10.57 115.527 12.43V17.98C115.527 18.58 115.807 18.88 116.367 18.88H117.567V22H115.047C114.307 22 113.697 21.82 113.217 21.46C112.737 21.1 112.497 20.62 112.497 20.02V19.99H111.927C111.847 20.23 111.667 20.55 111.387 20.95C111.107 21.33 110.667 21.67 110.067 21.97C109.467 22.27 108.647 22.42 107.607 22.42ZM108.267 19.36C109.327 19.36 110.187 19.07 110.847 18.49C111.527 17.89 111.867 17.1 111.867 16.12V15.82H108.057C107.357 15.82 106.807 15.97 106.407 16.27C106.007 16.57 105.807 16.99 105.807 17.53C105.807 18.07 106.017 18.51 106.437 18.85C106.857 19.19 107.467 19.36 108.267 19.36ZM120.33 22V7.12H124.05V8.74H124.59C124.85 8.24 125.28 7.81 125.88 7.45C126.48 7.07 127.27 6.88 128.25 6.88C129.31 6.88 130.16 7.09 130.8 7.51C131.44 7.91 131.93 8.44 132.27 9.1H132.81C133.15 8.46 133.63 7.93 134.25 7.51C134.87 7.09 135.75 6.88 136.89 6.88C137.81 6.88 138.64 7.08 139.38 7.48C140.14 7.86 140.74 8.45 141.18 9.25C141.64 10.03 141.87 11.02 141.87 12.22V22H138.09V12.49C138.09 11.67 137.88 11.06 137.46 10.66C137.04 10.24 136.45 10.03 135.69 10.03C134.83 10.03 134.16 10.31 133.68 10.87C133.22 11.41 132.99 12.19 132.99 13.21V22H129.21V12.49C129.21 11.67 129 11.06 128.58 10.66C128.16 10.24 127.57 10.03 126.81 10.03C125.95 10.03 125.28 10.31 124.8 10.87C124.34 11.41 124.11 12.19 124.11 13.21V22H120.33ZM145.936 28V7.12H149.656V8.92H150.196C150.536 8.34 151.066 7.83 151.786 7.39C152.506 6.93 153.536 6.7 154.876 6.7C156.076 6.7 157.186 7 158.206 7.6C159.226 8.18 160.046 9.04 160.666 10.18C161.286 11.32 161.596 12.7 161.596 14.32V14.8C161.596 16.42 161.286 17.8 160.666 18.94C160.046 20.08 159.226 20.95 158.206 21.55C157.186 22.13 156.076 22.42 154.876 22.42C153.976 22.42 153.216 22.31 152.596 22.09C151.996 21.89 151.506 21.63 151.126 21.31C150.766 20.97 150.476 20.63 150.256 20.29H149.716V28H145.936ZM153.736 19.12C154.916 19.12 155.886 18.75 156.646 18.01C157.426 17.25 157.816 16.15 157.816 14.71V14.41C157.816 12.97 157.426 11.88 156.646 11.14C155.866 10.38 154.896 10 153.736 10C152.576 10 151.606 10.38 150.826 11.14C150.046 11.88 149.656 12.97 149.656 14.41V14.71C149.656 16.15 150.046 17.25 150.826 18.01C151.606 18.75 152.576 19.12 153.736 19.12ZM172.147 22.42C170.667 22.42 169.337 22.12 168.157 21.52C166.977 20.92 166.047 20.05 165.367 18.91C164.687 17.77 164.347 16.4 164.347 14.8V14.32C164.347 12.72 164.687 11.35 165.367 10.21C166.047 9.07 166.977 8.2 168.157 7.6C169.337 7 170.667 6.7 172.147 6.7C173.627 6.7 174.957 7 176.137 7.6C177.317 8.2 178.247 9.07 178.927 10.21C179.607 11.35 179.947 12.72 179.947 14.32V14.8C179.947 16.4 179.607 17.77 178.927 18.91C178.247 20.05 177.317 20.92 176.137 21.52C174.957 22.12 173.627 22.42 172.147 22.42ZM172.147 19.06C173.307 19.06 174.267 18.69 175.027 17.95C175.787 17.19 176.167 16.11 176.167 14.71V14.41C176.167 13.01 175.787 11.94 175.027 11.2C174.287 10.44 173.327 10.06 172.147 10.06C170.987 10.06 170.027 10.44 169.267 11.2C168.507 11.94 168.127 13.01 168.127 14.41V14.71C168.127 16.11 168.507 17.19 169.267 17.95C170.027 18.69 170.987 19.06 172.147 19.06ZM189.616 22.42C187.676 22.42 186.086 22 184.846 21.16C183.606 20.32 182.856 19.12 182.596 17.56L186.076 16.66C186.216 17.36 186.446 17.91 186.766 18.31C187.106 18.71 187.516 19 187.996 19.18C188.496 19.34 189.036 19.42 189.616 19.42C190.496 19.42 191.146 19.27 191.566 18.97C191.986 18.65 192.196 18.26 192.196 17.8C192.196 17.34 191.996 16.99 191.596 16.75C191.196 16.49 190.556 16.28 189.676 16.12L188.836 15.97C187.796 15.77 186.846 15.5 185.986 15.16C185.126 14.8 184.436 14.31 183.916 13.69C183.396 13.07 183.136 12.27 183.136 11.29C183.136 9.81 183.676 8.68 184.756 7.9C185.836 7.1 187.256 6.7 189.016 6.7C190.676 6.7 192.056 7.07 193.156 7.81C194.256 8.55 194.976 9.52 195.316 10.72L191.806 11.8C191.646 11.04 191.316 10.5 190.816 10.18C190.336 9.86 189.736 9.7 189.016 9.7C188.296 9.7 187.746 9.83 187.366 10.09C186.986 10.33 186.796 10.67 186.796 11.11C186.796 11.59 186.996 11.95 187.396 12.19C187.796 12.41 188.336 12.58 189.016 12.7L189.856 12.85C190.976 13.05 191.986 13.32 192.886 13.66C193.806 13.98 194.526 14.45 195.046 15.07C195.586 15.67 195.856 16.49 195.856 17.53C195.856 19.09 195.286 20.3 194.146 21.16C193.026 22 191.516 22.42 189.616 22.42ZM204.206 28L213.026 0.999999H216.806L207.986 28H204.206ZM219.316 18.1V14.5L228.256 11.77V11.23L219.316 8.5V4.9L231.916 9.16V13.84L219.316 18.1Z" fill="black"/>
</svg>
