<svg width="348" height="28" viewBox="0 0 348 28" fill="none" xmlns="http://www.w3.org/2000/svg">
<path d="M0.95 13.37C0.95 13.09 1.01 12.86 1.13 12.68C1.27 12.5 1.5 12.31 1.82 12.11L14.42 4.01C14.52 3.95 14.63 3.92 14.75 3.92C14.93 3.92 15.08 3.98 15.2 4.1C15.32 4.22 15.38 4.37 15.38 4.55V9.41C15.38 9.71 15.3 9.95 15.14 10.13C15 10.29 14.85 10.42 14.69 10.52C14.55 10.62 14.46 10.68 14.42 10.7L9.17 14L14.42 17.3C14.46 17.32 14.57 17.39 14.75 17.51C14.95 17.63 15.1 17.78 15.2 17.96C15.32 18.14 15.38 18.35 15.38 18.59V23.45C15.38 23.63 15.32 23.78 15.2 23.9C15.08 24.02 14.93 24.08 14.75 24.08C14.63 24.08 14.52 24.05 14.42 23.99L1.82 15.89C1.5 15.69 1.27 15.5 1.13 15.32C1.01 15.14 0.95 14.91 0.95 14.63V13.37ZM44.0183 18.35C44.2383 18.35 44.4283 18.43 44.5883 18.59C44.7483 18.75 44.8283 18.94 44.8283 19.16V23.69C44.8283 23.91 44.7483 24.1 44.5883 24.26C44.4283 24.42 44.2383 24.5 44.0183 24.5H26.4983C26.2783 24.5 26.0883 24.42 25.9283 24.26C25.7683 24.1 25.6883 23.91 25.6883 23.69V4.31C25.6883 4.09 25.7683 3.9 25.9283 3.74C26.0883 3.58 26.2783 3.5 26.4983 3.5H32.9783C33.1983 3.5 33.3883 3.58 33.5483 3.74C33.7083 3.9 33.7883 4.09 33.7883 4.31V18.35H44.0183ZM63.8066 18.35H69.2366C69.4566 18.35 69.6466 18.43 69.8066 18.59C69.9666 18.75 70.0466 18.94 70.0466 19.16V23.69C70.0466 23.91 69.9666 24.1 69.8066 24.26C69.6466 24.42 69.4566 24.5 69.2366 24.5H50.2166C49.9966 24.5 49.8066 24.42 49.6466 24.26C49.4866 24.1 49.4066 23.91 49.4066 23.69V19.16C49.4066 18.94 49.4866 18.75 49.6466 18.59C49.8066 18.43 49.9966 18.35 50.2166 18.35H55.7066V9.65H50.2166C49.9966 9.65 49.8066 9.57 49.6466 9.41C49.4866 9.25 49.4066 9.06 49.4066 8.84V4.31C49.4066 4.09 49.4866 3.9 49.6466 3.74C49.8066 3.58 49.9966 3.5 50.2166 3.5H69.2366C69.4566 3.5 69.6466 3.58 69.8066 3.74C69.9666 3.9 70.0466 4.09 70.0466 4.31V8.84C70.0466 9.06 69.9666 9.25 69.8066 9.41C69.6466 9.57 69.4566 9.65 69.2366 9.65H63.8066V18.35ZM96.3448 3.5C96.5248 3.5 96.6748 3.57 96.7948 3.71C96.9348 3.83 97.0048 3.98 97.0048 4.16L96.9748 4.37L90.0748 23.51C89.9748 23.79 89.8148 24.03 89.5948 24.23C89.3748 24.41 89.0848 24.5 88.7248 24.5H81.7348C81.3748 24.5 81.0848 24.41 80.8648 24.23C80.6448 24.03 80.4948 23.82 80.4148 23.6L73.4548 4.37L73.4248 4.16C73.4248 3.98 73.4848 3.83 73.6048 3.71C73.7448 3.57 73.9048 3.5 74.0848 3.5H80.4148C80.7748 3.5 81.0648 3.61 81.2848 3.83C81.5248 4.03 81.6848 4.25 81.7648 4.49L85.2148 15.98L88.6648 4.49C88.7448 4.23 88.8948 4 89.1148 3.8C89.3348 3.6 89.6348 3.5 90.0148 3.5H96.3448ZM114.633 4.31C114.933 3.77 115.363 3.5 115.923 3.5H121.413C121.633 3.5 121.823 3.58 121.983 3.74C122.143 3.9 122.223 4.09 122.223 4.31V23.69C122.223 23.91 122.143 24.1 121.983 24.26C121.823 24.42 121.633 24.5 121.413 24.5H115.983C115.763 24.5 115.573 24.42 115.413 24.26C115.253 24.1 115.173 23.91 115.173 23.69V14.39L112.983 18.71C112.923 18.85 112.783 19.01 112.563 19.19C112.343 19.37 112.063 19.46 111.723 19.46H109.683C109.343 19.46 109.063 19.37 108.843 19.19C108.623 19.01 108.483 18.85 108.423 18.71L106.233 14.39V23.69C106.233 23.91 106.153 24.1 105.993 24.26C105.833 24.42 105.643 24.5 105.423 24.5H99.9931C99.7731 24.5 99.5831 24.42 99.4231 24.26C99.2631 24.1 99.1831 23.91 99.1831 23.69V4.31C99.1831 4.09 99.2631 3.9 99.4231 3.74C99.5831 3.58 99.7731 3.5 99.9931 3.5H105.483C106.043 3.5 106.473 3.77 106.773 4.31L110.703 11.51L114.633 4.31ZM131.871 23.48C131.611 24.16 131.161 24.5 130.521 24.5H124.851C124.671 24.5 124.511 24.44 124.371 24.32C124.251 24.18 124.191 24.02 124.191 23.84L124.221 23.66L130.761 4.49C130.841 4.23 130.991 4 131.211 3.8C131.431 3.6 131.731 3.5 132.111 3.5H140.451C140.831 3.5 141.131 3.6 141.351 3.8C141.571 4 141.721 4.23 141.801 4.49L148.341 23.66L148.371 23.84C148.371 24.02 148.301 24.18 148.161 24.32C148.041 24.44 147.891 24.5 147.711 24.5H142.041C141.401 24.5 140.951 24.16 140.691 23.48L139.941 21.38H132.621L131.871 23.48ZM136.281 9.29L134.151 15.53H138.411L136.281 9.29ZM158.92 16.4C158.92 17.22 159.19 17.85 159.73 18.29C160.29 18.73 161.04 18.95 161.98 18.95C162.82 18.95 163.44 18.81 163.84 18.53C164.24 18.25 164.58 17.83 164.86 17.27C165.12 16.75 165.47 16.49 165.91 16.49H172.39C172.57 16.49 172.72 16.56 172.84 16.7C172.98 16.82 173.05 16.97 173.05 17.15C173.05 18.37 172.64 19.57 171.82 20.75C171 21.91 169.75 22.88 168.07 23.66C166.41 24.42 164.38 24.8 161.98 24.8C159.84 24.8 157.93 24.48 156.25 23.84C154.59 23.18 153.27 22.18 152.29 20.84C151.31 19.48 150.82 17.79 150.82 15.77V12.23C150.82 10.21 151.31 8.53 152.29 7.19C153.27 5.83 154.59 4.83 156.25 4.19C157.93 3.53 159.84 3.2 161.98 3.2C164.38 3.2 166.41 3.59 168.07 4.37C169.75 5.13 171 6.1 171.82 7.28C172.64 8.44 173.05 9.63 173.05 10.85C173.05 11.03 172.98 11.19 172.84 11.33C172.72 11.45 172.57 11.51 172.39 11.51H165.91C165.47 11.51 165.12 11.25 164.86 10.73C164.58 10.17 164.24 9.75 163.84 9.47C163.44 9.19 162.82 9.05 161.98 9.05C161.04 9.05 160.29 9.27 159.73 9.71C159.19 10.15 158.92 10.78 158.92 11.6V16.4ZM197.158 3.5C197.378 3.5 197.568 3.58 197.728 3.74C197.888 3.9 197.968 4.09 197.968 4.31V23.69C197.968 23.91 197.888 24.1 197.728 24.26C197.568 24.42 197.378 24.5 197.158 24.5H190.978C190.758 24.5 190.568 24.42 190.408 24.26C190.248 24.1 190.168 23.91 190.168 23.69V17.3H184.168V23.69C184.168 23.91 184.088 24.1 183.928 24.26C183.768 24.42 183.578 24.5 183.358 24.5H177.178C176.958 24.5 176.768 24.43 176.608 24.29C176.448 24.13 176.368 23.93 176.368 23.69V4.31C176.368 4.09 176.448 3.9 176.608 3.74C176.768 3.58 176.958 3.5 177.178 3.5H183.358C183.578 3.5 183.768 3.58 183.928 3.74C184.088 3.9 184.168 4.09 184.168 4.31V10.46H190.168V4.31C190.168 4.09 190.248 3.9 190.408 3.74C190.568 3.58 190.758 3.5 190.978 3.5H197.158ZM208.336 23.48C208.076 24.16 207.626 24.5 206.986 24.5H201.316C201.136 24.5 200.976 24.44 200.836 24.32C200.716 24.18 200.656 24.02 200.656 23.84L200.686 23.66L207.226 4.49C207.306 4.23 207.456 4 207.676 3.8C207.896 3.6 208.196 3.5 208.576 3.5H216.916C217.296 3.5 217.596 3.6 217.816 3.8C218.036 4 218.186 4.23 218.266 4.49L224.806 23.66L224.836 23.84C224.836 24.02 224.766 24.18 224.626 24.32C224.506 24.44 224.356 24.5 224.176 24.5H218.506C217.866 24.5 217.416 24.16 217.156 23.48L216.406 21.38H209.086L208.336 23.48ZM212.746 9.29L210.616 15.53H214.876L212.746 9.29ZM238.055 3.5C241.435 3.5 244.135 4.23 246.155 5.69C248.195 7.15 249.215 9.41 249.215 12.47V15.53C249.215 18.65 248.205 20.93 246.185 22.37C244.185 23.79 241.475 24.5 238.055 24.5H228.485C228.265 24.5 228.075 24.42 227.915 24.26C227.755 24.1 227.675 23.91 227.675 23.69V4.31C227.675 4.09 227.755 3.9 227.915 3.74C228.075 3.58 228.265 3.5 228.485 3.5H238.055ZM238.205 18.65C239.145 18.65 239.885 18.43 240.425 17.99C240.985 17.53 241.265 16.89 241.265 16.07V11.93C241.265 11.11 240.985 10.48 240.425 10.04C239.885 9.58 239.145 9.35 238.205 9.35H235.475V18.65H238.205ZM274.793 15.83C274.793 18.89 273.773 21.15 271.733 22.61C269.713 24.07 267.013 24.8 263.633 24.8C260.253 24.8 257.543 24.07 255.503 22.61C253.483 21.15 252.473 18.87 252.473 15.77V12.23C252.473 10.19 252.953 8.5 253.913 7.16C254.893 5.8 256.223 4.8 257.903 4.16C259.583 3.52 261.493 3.2 263.633 3.2C265.773 3.2 267.673 3.52 269.333 4.16C271.013 4.8 272.343 5.79 273.323 7.13C274.303 8.47 274.793 10.15 274.793 12.17V15.83ZM260.573 16.4C260.573 17.22 260.843 17.85 261.383 18.29C261.943 18.73 262.693 18.95 263.633 18.95C264.573 18.95 265.313 18.73 265.853 18.29C266.413 17.83 266.693 17.19 266.693 16.37V11.63C266.693 10.81 266.413 10.18 265.853 9.74C265.313 9.28 264.573 9.05 263.633 9.05C262.693 9.05 261.943 9.27 261.383 9.71C260.843 10.15 260.573 10.78 260.573 11.6V16.4ZM316.829 1.82C316.909 1.58 317.059 1.37 317.279 1.19C317.519 1.01 317.809 0.92 318.149 0.92H322.439C322.619 0.92 322.769 0.989999 322.889 1.13C323.029 1.25 323.099 1.4 323.099 1.58C323.099 1.66 323.079 1.75 323.039 1.85L312.299 26.12C312.059 26.72 311.619 27.02 310.979 27.02H306.779C306.599 27.02 306.439 26.95 306.299 26.81C306.179 26.69 306.119 26.54 306.119 26.36C306.119 26.28 306.139 26.19 306.179 26.09L316.829 1.82ZM347.928 14.63C347.928 14.91 347.858 15.14 347.718 15.32C347.598 15.5 347.378 15.69 347.058 15.89L334.458 23.99C334.358 24.05 334.248 24.08 334.128 24.08C333.948 24.08 333.798 24.02 333.678 23.9C333.558 23.78 333.498 23.63 333.498 23.45V18.59C333.498 18.29 333.568 18.06 333.708 17.9C333.868 17.72 334.018 17.58 334.158 17.48C334.318 17.38 334.418 17.32 334.458 17.3L339.708 14L334.458 10.7C334.418 10.68 334.298 10.61 334.098 10.49C333.918 10.37 333.768 10.22 333.648 10.04C333.548 9.86 333.498 9.65 333.498 9.41V4.55C333.498 4.37 333.558 4.22 333.678 4.1C333.798 3.98 333.948 3.92 334.128 3.92C334.248 3.92 334.358 3.95 334.458 4.01L347.058 12.11C347.378 12.31 347.598 12.5 347.718 12.68C347.858 12.86 347.928 13.09 347.928 13.37V14.63Z" fill="url(#paint0_linear_311_142)"/>
<defs>
<linearGradient id="paint0_linear_311_142" x1="-4" y1="25" x2="361.49" y2="9.3566" gradientUnits="userSpaceOnUse">
<stop offset="0.229167" stop-color="#7D12FF"/>
<stop offset="0.458333" stop-color="#AB20FD"/>
<stop offset="0.817708" stop-color="#200589"/>
</linearGradient>
</defs>
</svg>
