<svg width="35" height="35" viewBox="0 0 35 35" fill="none" xmlns="http://www.w3.org/2000/svg">
<path fill-rule="evenodd" clip-rule="evenodd" d="M13.72 21.0983L22.2655 11.946C22.6331 11.5102 22.1736 11.4012 21.7142 11.7281L11.239 19.5729L6.73654 17.9386C5.72577 17.6117 5.72577 16.7401 6.92031 16.1953L24.6546 8.13255C25.4816 7.69672 26.2167 8.35046 25.941 9.87584L22.9087 26.764C22.725 27.9625 22.0818 28.2894 21.2548 27.7446L16.6604 23.7133L14.4551 26.2192C14.1794 26.5461 13.8119 26.5461 13.8119 26.2192L13.72 21.0983Z" fill="black"/>
<path d="M17.5 35C7.875 35 0 27.125 0 17.5C0 7.875 7.875 0 17.5 0C27.125 0 35 7.875 35 17.5C35 27.125 27.125 35 17.5 35ZM17.5 1.75C8.8375 1.75 1.75 8.8375 1.75 17.5C1.75 26.1625 8.8375 33.25 17.5 33.25C26.1625 33.25 33.25 26.1625 33.25 17.5C33.25 8.8375 26.1625 1.75 17.5 1.75Z" fill="black"/>
</svg>
